<svg xmlns="http://www.w3.org/2000/svg" viewBox="0 0 48 48"><path fill="#002856" fill-rule="nonzero" d="M24 48C10.745 48 0 37.255 0 24S10.745 0 24 0s24 10.745 24 24-10.745 24-24 24zm0-1.5c12.426 0 22.5-10.074 22.5-22.5S36.426 1.5 24 1.5 1.5 11.574 1.5 24 11.574 46.5 24 46.5zm.492-11.296a.75.75 0 0 1-.01-1.05l9.038-9.328H12.733a.738.738 0 0 1-.733-.743c0-.41.328-.742.733-.742H33.52l-9.038-9.328a.75.75 0 0 1 .01-1.05.726.726 0 0 1 1.036.01l10.262 10.59a.742.742 0 0 1 .131.185c0 .001.079.216.079.335 0 .211-.087.401-.226.536L25.528 35.194a.726.726 0 0 1-1.036.01z"/></svg>