<?xml version="1.0" encoding="UTF-8"?>
<svg width="64px" height="64px" viewBox="0 0 64 64" version="1.1" xmlns="http://www.w3.org/2000/svg" xmlns:xlink="http://www.w3.org/1999/xlink">
    <title>Icons / Desktop / Brand / handshake</title>
    <g id="Icons-/-Desktop-/-Brand-/-handshake" stroke="none" stroke-width="1" fill="none" fill-rule="evenodd">
        <path d="M24.8427307,52.7933545 C24.5345462,53.0856441 24.1370582,53.2544066 23.7027983,53.2317889 C23.2755425,53.22135 22.8780546,53.0473681 22.5838785,52.7394201 C21.9762648,52.1061259 21.9990284,51.0987706 22.63641,50.4950533 L25.2524759,48.0175507 C25.8881064,47.4138335 26.9037144,47.4416706 27.509577,48.0697453 C28.1171908,48.7047793 28.0926761,49.7121346 27.4570456,50.3158519 L24.8427307,52.7933545 Z M17.7614918,50.7473424 C17.3342361,50.7368882 16.9367481,50.5629062 16.642572,50.2549582 C16.0349583,49.6234039 16.059473,48.6195282 16.6933524,48.0123313 L21.2548329,43.6923602 C21.5630174,43.4000705 21.983269,43.260885 22.3947653,43.2539257 C22.82027,43.2626248 23.217758,43.4383466 23.5136851,43.7462946 C24.1212988,44.3778489 24.0967841,45.3852043 23.4594026,45.9906613 L23.3893607,46.0567745 C23.3858586,46.0602541 23.3806054,46.0619939 23.3771033,46.0672134 L20.7627884,48.5447159 L20.7575353,48.5499354 L18.9014242,50.3088926 C18.5932397,50.6029221 18.1782413,50.7490669 17.7614918,50.7473424 L17.7614918,50.7473424 Z M11.296622,47.2102746 C10.6890082,46.5752406 10.7117719,45.5678853 11.3491534,44.9624282 L11.3509045,44.9624282 L14.5238038,41.9542808 L14.641124,41.8446722 L14.641124,41.8429323 L17.1748907,39.4437217 C17.4830752,39.1496922 17.8805631,39.0052872 18.2763,39.0052872 C18.6983026,39.0052872 19.1203052,39.17057 19.4337428,39.4959162 C19.72967,39.8021244 19.8855133,40.2057625 19.875007,40.6285385 C19.8645007,41.0530544 19.6893959,41.4479934 19.3794603,41.740283 L17.2204179,43.7863104 L14.823233,46.0602541 L14.8214819,46.0602541 C14.8179798,46.0619939 14.8162288,46.0654736 14.8144778,46.0689532 L13.5572252,47.2607294 C12.9180926,47.8644466 11.9042357,47.8400892 11.296622,47.2102746 L11.296622,47.2102746 Z M7.2709622,40.7155295 L10.5611817,37.5960336 C10.8711173,37.303744 11.2756094,37.1802169 11.7011141,37.1575992 C12.1283698,37.1680381 12.5258578,37.34202 12.8200339,37.649968 C13.115961,37.9561762 13.2718043,38.3580745 13.261298,38.7808505 C13.2507917,39.2036266 13.077438,39.5950859 12.7692535,39.8891154 L9.47728291,43.0120909 L9.47728291,43.0120909 C8.83815032,43.6140683 7.82429343,43.5897108 7.21843076,42.9616361 C6.60906599,42.3266021 6.63358067,41.3192468 7.2709622,40.7155295 L7.2709622,40.7155295 Z M61.2155034,30.7585441 L53.0398595,38.0135903 C53.0065895,37.9857532 52.9820749,37.9544364 52.948805,37.9283391 L36.4084039,23.3277763 C35.9899034,22.9571948 35.3857917,22.8823826 34.8884941,23.1363962 C30.6982358,25.2694145 27.5043239,25.2989915 26.0421987,24.6743964 C25.7812925,24.5613081 25.4626017,24.3821067 25.2822438,24.1159144 C26.0141819,23.1781518 29.2676294,21.3235046 30.7087421,20.5005701 C30.9363783,20.3718234 31.1272426,20.260475 31.3373684,20.1404275 C31.3408704,20.1369479 31.3461236,20.1369479 31.3513767,20.135208 C31.3583809,20.1334682 31.361883,20.1265089 31.3688872,20.1230293 C31.9117122,19.8098618 32.4037567,19.5227917 32.7452111,19.3018346 C33.906156,18.5450133 35.8218027,18.9660495 36.4539311,19.1887464 L43.9816872,21.906344 C44.3879304,22.0524888 44.8414519,22.0002942 45.2021678,21.7567195 L63.4008115,9.57798506 C64.0224336,9.16216827 64.1870322,8.32357541 63.7685316,7.70767941 C63.3500311,7.08830377 62.5060259,6.92476076 61.8844038,7.34231737 L44.2583529,19.1365518 L37.3819867,16.6538298 C37.0177686,16.5233434 33.7520638,15.4185582 31.2550691,17.0452891 C31.1359978,17.1218412 30.9643951,17.2227507 30.815556,17.3114815 C29.4497384,16.6851465 27.1523632,16.9200221 23.8901605,17.2627665 L22.421031,17.412391 C18.9416983,17.7568752 15.2084636,17.5306987 14.0212529,17.4437077 L2.18766934,8.37229034 C1.59406401,7.91471789 0.743054598,8.02780614 0.282528927,8.61412522 C-0.174494647,9.20392393 -0.0659296603,10.0529557 0.527675672,10.5053087 L12.67995,19.8220406 C12.8830716,19.9786243 13.1282184,20.0725745 13.3838714,20.096932 C13.5116979,20.1091107 15.5796858,20.2970112 18.2517853,20.2970112 C19.6316113,20.2970112 21.1725337,20.2465565 22.6906925,20.096932 L24.1720792,19.9438279 C25.0038271,19.856837 25.909119,19.7646265 26.7478711,19.6985134 C23.7413214,21.540982 22.0795766,22.993731 22.5681191,24.6430796 C22.8955651,25.7530843 23.727313,26.6212541 24.9705572,27.1536387 C27.5113281,28.2340665 31.3163558,27.7782338 35.285982,25.9427246 L51.2257735,40.0091629 C51.9261928,40.5398078 52.0627746,41.5367242 51.5304559,42.2343917 C50.9963862,42.9285795 49.9895335,43.0660253 49.2891143,42.5353804 L46.4156442,40.3606064 C46.4156442,40.3606064 46.4138932,40.3606064 46.4138932,40.3606064 L36.6640569,32.9837729 C36.0669495,32.5314199 35.2159401,32.6479878 34.7624186,33.2395263 C34.3071461,33.8328047 34.4227152,34.6783568 35.0198227,35.12897 L47.64488,44.6823173 C47.9845834,44.9380707 48.2034644,45.310392 48.261249,45.7296885 C48.3190336,46.1507247 48.2069665,46.5682813 47.9495624,46.9040664 C47.4137417,47.5999941 46.40864,47.7339602 45.7099718,47.206795 L44.4141961,46.2255369 C44.4124451,46.2255369 44.410694,46.2237971 44.410694,46.2237971 L42.6613969,44.8997947 L35.0846115,39.1688302 C34.487504,38.7147374 33.6364946,38.8330451 33.1829731,39.4228438 C32.7277006,40.0161222 32.8432698,40.8634141 33.4403772,41.3122875 L39.8877366,46.1907406 C39.8912387,46.1924804 39.8912387,46.19596 39.8929897,46.1976998 L42.7664598,48.370734 C43.1061632,48.6264875 43.3250442,48.9988088 43.3828288,49.419845 C43.4406134,49.8408813 43.3285463,50.2566981 43.0693911,50.594223 C42.5370725,51.2901507 41.5319708,51.4258566 40.8315516,50.8969515 L37.9580815,48.7221775 C37.9580815,48.7204377 37.9563305,48.7204377 37.9563305,48.7204377 L32.1428505,44.3239145 C31.543992,43.8698217 30.6929826,43.9863896 30.2412122,44.5779281 C29.7859397,45.1712065 29.9015088,46.0167586 30.4986163,46.4673718 L36.9424736,51.3440851 C37.2821769,51.5998385 37.5010579,51.9721598 37.5570915,52.3949359 C37.6148761,52.8142323 37.502809,53.2317889 37.2471559,53.567574 C36.7113352,54.2635017 35.7079846,54.3992076 35.0058143,53.8703026 L30.453089,50.4254605 C30.8961042,48.9901097 30.5879197,47.370338 29.4742531,46.2098786 C28.7055429,45.4095617 27.6951881,44.9850458 26.6638208,44.9119734 C26.6813312,43.8245864 26.2908475,42.7302401 25.4766101,41.884688 C24.709651,41.086111 23.6835368,40.6267987 22.5803764,40.5711245 C22.5751233,39.4715588 22.163627,38.4311469 21.3984189,37.6360495 C19.8732559,36.0458547 17.4112822,35.8962303 15.6864997,37.1941354 C15.4851292,36.6774091 15.1804468,36.2006986 14.7847099,35.7901013 C13.9897341,34.9602075 12.9180926,34.4887165 11.7659029,34.4608794 C10.6154642,34.4487007 9.52105911,34.8540786 8.68756018,35.6456963 L7.18165875,37.0723481 L2.0843575,33.8536825 C1.45222911,33.4535241 0.613477032,33.6379449 0.212487,34.2694993 C-0.190254081,34.897574 -0.00289192593,35.7309475 0.629236466,36.1311059 L5.18721487,39.007027 C3.69357078,40.652896 3.69006868,43.1878126 5.2537547,44.8215028 C6.04522848,45.6444373 7.08885319,46.0689532 8.15173944,46.1228876 C8.15524153,47.1824375 8.54047213,48.2437272 9.33369696,49.0701414 C10.1794532,49.9504899 11.3141324,50.3941438 12.4540648,50.3941438 C12.8533038,50.3941438 13.2507917,50.3193315 13.6395244,50.2097229 C13.8146292,50.902171 14.1490794,51.5633023 14.677896,52.1165648 C15.4728719,52.9447187 16.5462644,53.4162097 17.6967031,53.4440468 L17.8017659,53.4440468 C18.4601601,53.4440468 19.0887864,53.2805038 19.6648812,53.0038726 C19.8592475,53.5814926 20.1691831,54.1312754 20.6192025,54.5992868 C21.4141783,55.4291806 22.4858198,55.9006716 23.6380095,55.9285087 L23.7430724,55.9285087 C24.856739,55.9285087 25.909119,55.5109521 26.7163522,54.7436918 L28.9209219,52.6541689 L33.36158,56.0172395 C34.1407965,56.6035585 35.0583457,56.8888889 35.9688908,56.8888889 C37.2699196,56.8888889 38.55694,56.3077893 39.4044473,55.2030041 C39.7791716,54.7141149 40.0278205,54.1625922 40.1644022,53.5832324 C40.6897167,53.7972301 41.2412968,53.9172777 41.792877,53.9172777 C43.0939058,53.9172777 44.3826773,53.3344382 45.2301846,52.229653 C45.6942124,51.6207163 45.9656248,50.9143497 46.0584304,50.1766664 C46.263303,50.2062433 46.4681757,50.2253813 46.6730483,50.2253813 C47.9740771,50.2253813 49.2610975,49.6442817 50.1086048,48.5394965 C50.7845094,47.6556683 51.0769345,46.571761 50.9543611,45.473935 C52.0032389,45.3034328 52.9943322,44.7710481 53.6894983,43.8663421 C54.4844742,42.8259302 54.7103594,41.5419436 54.4617106,40.3658258 L63.0225851,32.7697752 C63.5829205,32.2739267 63.6301988,31.4214153 63.1311501,30.8646731 C62.6321014,30.3114106 61.7723367,30.2609559 61.2155034,30.7585441 L61.2155034,30.7585441 Z" id="Handshake" fill="#FFFFFF" fill-rule="nonzero"></path>
    </g>
</svg>