<?xml version="1.0" encoding="UTF-8"?>
<svg width="64px" height="64px" viewBox="0 0 64 64" version="1.1" xmlns="http://www.w3.org/2000/svg" xmlns:xlink="http://www.w3.org/1999/xlink">
    <title>Icons / Desktop / Brand / man+woman</title>
    <g id="Icons-/-Desktop-/-Brand-/-man+woman" stroke="none" stroke-width="1" fill="none" fill-rule="evenodd">
        <path d="M22.616153,7.21086287 C24.0551945,7.40807219 25.2933275,7.89408067 26.0460432,8.58040377 L26.0653591,8.59820533 L26.1086549,8.60073486 C26.5819359,8.62965854 27.1034498,8.70951423 27.6476751,8.85996134 L27.7040542,8.87577746 C28.9024833,9.21688381 29.9747721,9.84506591 30.8114226,10.8273788 C32.0334992,12.2608656 32.5602563,14.4807828 32.6214506,17.2521511 C32.655116,18.7767905 32.5349538,20.4097496 32.3489671,21.7059369 L32.3426345,21.749589 L32.3452447,21.7528453 C32.3689398,21.7828558 32.392465,21.8137675 32.4157872,21.845596 L32.4390405,21.8777306 C32.880838,22.4959601 33.1298408,23.3116431 33.1298408,24.3106985 C33.1298408,24.344227 33.1285791,24.3777436 33.1260584,24.4111757 C32.9607033,26.60426 32.4230414,27.778546 31.3508635,28.4277867 C31.267285,28.4783964 31.1843119,28.5237748 31.0929631,28.5701404 L31.053223,28.5901179 L30.8661897,28.6815414 L30.8444447,28.6923723 C30.8419547,28.7032205 30.8395784,28.7142265 30.8372403,28.7259795 L30.8337643,28.7441684 C30.6036275,30.0012082 30.3126148,30.9713571 29.9484756,31.7679076 C29.788175,32.1185634 29.6205545,32.4230863 29.4253778,32.7316856 L29.3884543,32.789608 C29.3639588,32.8277388 29.3247403,32.8869845 29.2798545,32.9542734 L29.1372506,33.1671984 C29.0665032,33.2726541 29.0033794,33.366796 28.9784417,33.4055072 L28.9503207,33.4502919 C28.758508,33.7614718 28.6988518,33.9818583 28.6988518,34.515319 C28.6988518,36.3410024 29.0217703,37.4303568 29.8311291,38.3347227 C30.7366517,39.3465407 32.3742329,40.2662417 35.2070753,41.3125901 L35.2932853,41.3443367 C36.3033323,41.7154303 37.2064168,42.097984 38.0083525,42.4928757 C38.3620243,42.1790426 38.6255925,41.7283647 38.8068108,41.1514947 C38.9391426,40.7302448 39.0160571,40.2848597 39.0507088,39.8548739 L39.0526985,39.8285423 L38.9990784,39.8181126 C38.2155334,39.6639885 37.5354318,39.4806155 36.9810047,39.2708038 L36.9374956,39.2541849 C36.4645044,39.0718248 36.0719844,38.8658069 35.7587636,38.6200159 C35.2987284,38.2590168 34.9866087,37.7982437 34.9306133,37.2184721 C34.1433128,29.2397802 34.3146105,24.1485039 35.3609231,21.0157656 C35.8438157,19.5699492 36.5226,18.4985031 37.4214815,17.7002258 C38.1024618,17.0954617 38.7466444,16.7406117 39.8418041,16.2752572 L40.2363917,16.1089865 C42.3448455,15.2198885 44.4362304,15.0241028 46.3005708,15.4080396 C47.510001,15.6571061 48.5809075,16.1513712 49.254769,16.7699759 L49.2685219,16.7827335 L49.2968166,16.7846838 C49.6919756,16.8133105 50.123682,16.8823377 50.5729591,17.0059321 L50.6292088,17.0216667 C51.6376526,17.3084341 52.5471241,17.8262437 53.2726201,18.6274612 L53.3082092,18.667159 L53.3117691,18.6704423 C53.474896,18.821772 53.657146,19.0363258 53.8496976,19.3239464 L53.8719603,19.3574582 C54.2372571,19.9115621 54.5849483,20.6514118 54.8982039,21.6051009 C55.9516776,24.8123426 56.454338,29.8449461 56.1468336,37.1433967 C56.1201373,37.7782102 55.7868595,38.276032 55.2849917,38.6578186 C54.9517701,38.9113107 54.5298936,39.1223626 54.017911,39.3084027 C53.4082144,39.5299494 52.6506087,39.72132 51.7761458,39.8782407 L51.695501,39.8925134 L51.7030493,39.9305691 L51.7143188,39.9843909 L51.7263258,40.0385892 C51.8814977,40.7202743 52.1887667,41.3948323 52.6889889,42.0334731 C53.5619057,43.1479385 54.953145,44.0697188 56.9963277,44.709054 L57.058442,44.7283412 C59.6708274,45.5332485 61.4861045,46.5545595 62.6148199,47.7826335 C63.5706886,48.8226455 63.9905274,49.9530722 64,51.1077279 L64,57.3409321 C64,58.0731151 63.4112125,58.6666667 62.6849063,58.6666667 C61.9658631,58.6666667 61.3816021,58.0849268 61.3699888,57.3628556 L61.3698126,51.1471005 C61.3698126,50.628726 61.1879553,50.1314103 60.6854735,49.584696 C59.9245856,48.7568287 58.5481132,47.9744023 56.420826,47.3048643 L56.2896446,47.2640138 C53.7175795,46.4714937 51.8506874,45.241804 50.624725,43.6766002 C49.873128,42.7170254 49.4020719,41.6829004 49.1627675,40.6316134 C48.9990176,39.9122443 48.9607013,39.2736937 48.9960112,38.7580118 L48.9993485,38.7129005 C49.0033484,38.6627587 49.0076724,38.6213653 49.0118127,38.589142 C49.0887628,37.9902471 49.5574824,37.5194574 50.1518474,37.4440724 L50.2726427,37.4284696 C51.4735577,37.2705201 52.4620966,37.0552815 53.1260178,36.8140311 C53.2763464,36.7594059 53.4025127,36.705984 53.5017187,36.6573551 L53.5346683,36.6408136 L53.5371223,36.5781822 C53.6704682,33.0542376 53.603488,30.0798756 53.3663036,27.6117985 L53.3510163,27.4557794 L53.335327,27.3016252 C53.1233464,25.2572374 52.800077,23.6524979 52.4013398,22.4385645 C52.1589966,21.7007645 51.9114035,21.1739129 51.6814161,20.8250543 L51.6561618,20.7873811 C51.607029,20.7153498 51.566223,20.6630799 51.5350305,20.6282327 L51.527774,20.6202576 L51.5091446,20.6040859 C51.4732508,20.5721199 51.4391026,20.5381892 51.4068568,20.5024412 L51.3830317,20.4752918 C51.0065312,20.0342541 50.5059634,19.7415603 49.9151413,19.5735505 C49.4972169,19.4547068 49.0964043,19.4140142 48.7945412,19.4210367 C48.6730635,19.4238627 48.5517835,19.4097031 48.4341622,19.3789619 L48.3731187,19.3624339 L48.2890486,19.3386846 C47.9727539,19.2528393 47.7002843,19.0513044 47.5241004,18.7744813 L47.5149058,18.7597748 C47.502082,18.7464992 47.4921689,18.7369886 47.4802635,18.7262682 L47.4609211,18.7093128 C47.3801148,18.6402266 47.2650182,18.5616381 47.1227126,18.4824339 C46.7660562,18.2839267 46.3014435,18.1144485 45.7741375,18.0058566 C44.4378909,17.7306739 42.9032199,17.8698952 41.3059048,18.532271 L40.911226,18.6982817 C40.0285344,19.0713364 39.5829648,19.3142562 39.1601137,19.6897812 C38.6211084,20.1684603 38.1940327,20.8425898 37.8536124,21.8618335 C36.972998,24.4984587 36.801273,29.1317008 37.5040321,36.5039745 L37.5147403,36.6155098 C37.6054776,36.663909 37.7166729,36.7148362 37.8514914,36.7677194 L37.8770461,36.7776571 C38.4789983,37.0097376 39.3829382,37.2217782 40.4928726,37.3838004 L40.5504662,37.3921361 C41.1417455,37.4769835 41.6010454,37.9524805 41.6710742,38.5484613 L41.6735751,38.5714425 C41.6751726,38.5873904 41.6771927,38.6098764 41.6794603,38.63859 L41.6834088,38.6920419 C41.6853458,38.7200851 41.6872185,38.7500894 41.6889885,38.7819885 C41.7425931,39.7480557 41.6579338,40.858001 41.3142681,41.9519876 C41.087966,42.6723722 40.7639236,43.3195787 40.3303225,43.8683433 C40.8067583,44.2137935 41.2192783,44.5685176 41.5718917,44.9325973 C42.6871397,46.0841107 43.1878339,47.3072197 43.1981983,48.5813026 L43.1981983,57.3409321 C43.1981983,58.0731151 42.6094108,58.6666667 41.8831046,58.6666667 C41.1640615,58.6666667 40.5798004,58.0849268 40.5681871,57.3628556 L40.5680109,48.6211343 C40.5680109,48.0248744 40.3370666,47.4530628 39.6899407,46.7848936 C38.7436611,45.8078431 37.053139,44.8203588 34.471445,43.8645736 L34.3929389,43.8356201 C28.0714676,41.5147619 26.0686643,39.2768583 26.0686643,34.515319 C26.0686643,33.4621849 26.2746929,32.7571058 26.7373694,32.01698 L26.7592455,31.9822595 C26.8359489,31.8614602 27.118591,31.4451396 27.1807794,31.3483345 C27.3273149,31.1202313 27.4453396,30.9084194 27.5597414,30.6581666 C27.8267856,30.0740104 28.0549416,29.3134069 28.2473788,28.2622885 C28.349232,27.7075087 28.5543516,27.2548242 28.8836625,26.8943634 C29.1357636,26.6184159 29.3648505,26.4699812 29.7265328,26.2918433 L29.9181379,26.1978502 C29.9453842,26.1841114 29.9615059,26.1754368 29.9769034,26.1665141 L29.9965254,26.1548473 C30.07032,26.1101621 30.1067119,26.0701177 30.1751402,25.9206662 C30.3167253,25.611436 30.4319408,25.0862601 30.4965855,24.2973344 L30.499294,24.2633319 L30.4991437,24.2498022 C30.4922127,23.8413322 30.4153135,23.5889026 30.3125241,23.4383941 L30.3049573,23.4275624 C30.2952072,23.4139185 30.2862136,23.4028019 30.2781282,23.3939056 L30.2755351,23.3911223 L30.2583246,23.3810719 C29.7943239,23.1039694 29.5414053,22.5643325 29.6324481,22.0204295 L29.6365609,21.9971176 C29.859604,20.7946164 30.0284612,18.9662818 29.9919146,17.311157 C29.9431275,15.1016853 29.5404063,13.4044939 28.8162796,12.5550984 C28.3443939,12.0010566 27.7205888,11.6356111 26.9893783,11.4274882 C26.4762751,11.2814447 25.9855173,11.2316942 25.6076741,11.2403792 C25.4957065,11.2429529 25.383923,11.2310963 25.2750317,11.2051357 L25.2297539,11.1935085 L25.0947787,11.1562444 C24.7715054,11.072144 24.492748,10.8674575 24.314137,10.5847012 L24.3030283,10.566709 L24.301814,10.5654495 C24.292279,10.555632 24.2791648,10.5434637 24.2625503,10.5294441 L24.2409378,10.5117638 C24.1501444,10.4396011 24.0191054,10.3594635 23.8545948,10.2804482 C23.4434491,10.0829727 22.8955142,9.92500395 22.2618583,9.8381664 C20.6576917,9.61832798 18.753902,9.86897161 16.7443355,10.6896424 C14.7672753,11.4961096 13.673521,12.7021942 13.1919849,14.3422534 C12.7976101,15.685451 12.8085739,17.2656307 13.1353029,19.3467077 L13.1585956,19.4930435 L13.1604809,19.5058809 C13.1780916,19.6299918 13.196298,19.755472 13.2150476,19.8820895 C13.2839188,20.3471828 13.3573684,20.8097225 13.4312206,21.2516624 L13.4783874,21.5308187 C13.4946603,21.6260486 13.5101164,21.7153509 13.5246061,21.7980849 L13.5607972,22.0020936 C13.6607355,22.5525157 13.4070655,23.1012173 12.9377541,23.3812897 L12.920787,23.3911223 L12.9183167,23.3939056 C12.9122526,23.4005778 12.9056777,23.408499 12.8986559,23.4177985 L12.8914875,23.4275624 C12.7875883,23.5729538 12.7084437,23.8187012 12.6979706,24.2187258 L12.6970895,24.2633938 L12.6998505,24.2972224 L12.7070929,24.3821367 C12.7715769,25.1090571 12.8804389,25.6024028 13.0132948,25.9023926 L13.020986,25.9194855 L13.0368583,25.9534178 C13.0905149,26.0652316 13.1255511,26.1062155 13.1827044,26.1437442 L13.2154591,26.1638868 C13.2448837,26.1811836 13.2737783,26.1959109 13.3759051,26.245776 L13.4362216,26.2751793 C13.8179414,26.4610778 14.0536995,26.610392 14.3135777,26.8955438 C14.6343261,27.2474856 14.8366164,27.6870248 14.9396121,28.2211603 L14.9684882,28.3757844 C15.1565602,29.3670001 15.3779731,30.0933575 15.6354518,30.6560435 C15.7419459,30.8887723 15.8515684,31.0882632 15.9842821,31.2983813 L16.0273138,31.365512 C16.1054444,31.4847425 16.3505868,31.8457957 16.4311524,31.9711008 L16.4378256,31.9815332 C16.9166452,32.7345417 17.129534,33.4453934 17.129534,34.515319 C17.129534,39.2294808 15.1662825,41.4698991 8.99228821,43.7658783 L8.80390629,43.8354731 C6.17845047,44.8003515 4.46374355,45.7978956 3.50813871,46.7847901 C2.87078401,47.4430139 2.63717384,48.0077782 2.63034238,48.5944518 L2.63018743,57.3409321 C2.63018743,58.0731151 2.04139992,58.6666667 1.31509371,58.6666667 C0.596050573,58.6666667 0.0117895021,58.0849268 0,57.3628556 L0,48.6211343 C0,47.3328022 0.499361751,46.0962156 1.62598715,44.9327008 C2.88153891,43.6360381 4.89673094,42.458022 7.8148557,41.3769205 L7.90356025,41.3441895 C10.7900072,40.2847709 12.4520585,39.3566963 13.3669364,38.3346262 C14.1764145,37.4303054 14.4993466,36.3410356 14.4993466,34.515319 C14.4993466,33.9821452 14.4396804,33.7620065 14.2476952,33.4509976 L14.2235206,33.4124333 C14.1759179,33.3375717 13.9101294,32.946535 13.8153242,32.8002384 L13.8085405,32.7897338 C13.5969023,32.460737 13.4178666,32.1398085 13.2471238,31.7666724 C12.8892783,30.9846481 12.6019064,30.0353195 12.3730268,28.8095142 L12.3606004,28.7423772 L12.3576128,28.7264846 L12.3576128,28.7264846 L12.3500977,28.6912587 L12.1631074,28.5997821 C12.1420978,28.5893988 12.1223387,28.5795096 12.1024659,28.5694134 C12.0104655,28.5226732 11.9268925,28.4768898 11.8427116,28.4257809 C10.7725371,27.7760447 10.2355404,26.6015916 10.0703865,24.4111757 C10.0678657,24.3777436 10.066604,24.344227 10.066604,24.3106985 C10.066604,23.3116431 10.3156069,22.4959601 10.7574044,21.8777306 C10.7805875,21.8452893 10.8039847,21.8137698 10.8275629,21.7831568 L10.8483483,21.7563944 L10.8394633,21.7034009 C10.7694074,21.2845421 10.6996806,20.8476931 10.633447,20.4061496 L10.6136849,20.2735591 C10.6006672,20.1856495 10.5878924,20.0982073 10.5753756,20.0112954 L10.5588611,19.8957879 L10.5486402,19.831948 C10.1587316,17.3858074 10.1365944,15.4472077 10.6539462,13.6448622 L10.6699522,13.5897305 C11.3798942,11.1717455 13.0411047,9.3399261 15.7572792,8.23196512 C18.1872109,7.23962462 20.5531207,6.92814053 22.616153,7.21086287 Z" id="Combined-Shape" fill="#FFFFFF" fill-rule="nonzero"></path>
    </g>
</svg>