<?xml version="1.0" encoding="UTF-8"?>
<svg width="64px" height="64px" viewBox="0 0 64 64" version="1.1" xmlns="http://www.w3.org/2000/svg" xmlns:xlink="http://www.w3.org/1999/xlink">
    <title>Icons / Desktop / Brand / scales</title>
    <g id="Icons-/-Desktop-/-Brand-/-scales" stroke="none" stroke-width="1" fill="none" fill-rule="evenodd">
        <path d="M61.2858355,61.279331 L2.71416455,61.279331 L2.71416455,56.4498692 L31.9991245,56.4498692 L61.2858355,56.4498692 L61.2858355,61.279331 Z M20.4840625,31.304448 L4.11852581,31.304448 L12.3012942,20.6946912 L20.4840625,31.304448 Z M12.3012942,42.2486599 C7.47533448,42.2486599 3.47062847,38.6659627 2.80872254,34.0203636 L21.7921147,34.0203636 C21.1319598,38.6659627 17.1272538,42.2486599 12.3012942,42.2486599 L12.3012942,42.2486599 Z M43.5159375,14.1824474 L51.6987058,3.57269063 L59.8814742,14.1824474 L43.5159375,14.1824474 Z M51.6987058,25.1266593 C46.8727462,25.1266593 42.8680402,21.5439621 42.2061342,16.8966119 L61.1895264,16.8966119 C60.5293715,21.5439621 56.5246655,25.1266593 51.6987058,25.1266593 L51.6987058,25.1266593 Z M62.6429177,53.7339536 L33.3562067,53.7339536 L33.3562067,10.8028748 L47.4015705,4.69863115 L39.6793346,14.7095206 C39.6443131,14.7567996 39.6338067,14.812834 39.6057895,14.860113 C39.5585105,14.9406624 39.5129826,15.0212118 39.4849654,15.1052633 C39.4534461,15.1963192 39.4411885,15.285624 39.4306821,15.3801819 C39.4236778,15.4344652 39.3974117,15.4834953 39.3974117,15.5395297 C39.3974117,22.32319 44.9150456,27.8408238 51.6987058,27.8408238 C58.4806151,27.8408238 64,22.32319 64,15.5395297 C64,15.4834953 63.9737339,15.4344652 63.9667296,15.3801819 C63.9562232,15.285624 63.9439656,15.1963192 63.9124463,15.1052633 C63.882678,15.0212118 63.8389012,14.9406624 63.7916222,14.860113 C63.763605,14.812834 63.7530986,14.7567996 63.7180771,14.7095206 L52.7738652,0.522319894 C52.7546034,0.497804859 52.7248352,0.490800564 52.7055733,0.468036603 C52.5935046,0.340208208 52.4621741,0.24214807 52.3150839,0.165100818 C52.3045774,0.159847596 52.295822,0.151092227 52.2853156,0.145839005 C51.9421051,-0.0222640894 51.535856,-0.0572855674 51.157624,0.105564305 L33.3562067,7.8418088 L33.3562067,3.20671618 C33.3562067,2.45725655 32.7503352,1.84963391 31.9991245,1.84963391 C31.2496648,1.84963391 30.6420422,2.45725655 30.6420422,3.20671618 L30.6420422,9.02203261 L11.7602123,17.229316 C11.5605899,17.3168697 11.4047443,17.4534534 11.2716627,17.609299 C11.2594052,17.6233076 11.2383923,17.6285608 11.2261348,17.6443205 L0.281922898,31.8332723 C0.24690142,31.8788002 0.236394977,31.9348346 0.208377794,31.9838647 C0.161098799,32.062663 0.115570877,32.1432124 0.087553695,32.2272639 C0.0560343648,32.3183198 0.0437768475,32.4093756 0.0332704041,32.5021825 C0.0262661085,32.5582169 0,32.6054959 0,32.6615303 C0,39.4451906 5.51763386,44.9645755 12.3012942,44.9645755 C19.0832034,44.9645755 24.6025883,39.4451906 24.6025883,32.6615303 C24.6025883,32.6054959 24.5763222,32.5582169 24.5693179,32.5021825 C24.5588115,32.4093756 24.5465539,32.3183198 24.5150346,32.2272639 C24.4852664,32.1432124 24.4397384,32.062663 24.3942105,31.9838647 C24.3661933,31.9348346 24.3556869,31.8788002 24.3206654,31.8332723 L14.4411065,19.0241667 L30.6420422,11.9830986 L30.6420422,53.7339536 L1.35708227,53.7339536 C0.607622644,53.7339536 0,54.3433273 0,55.0927869 L0,62.6364133 C0,63.3858729 0.607622644,63.9952466 1.35708227,63.9952466 L62.6429177,63.9952466 C63.3923774,63.9952466 64,63.3858729 64,62.6364133 L64,55.0927869 C64,54.3433273 63.3923774,53.7339536 62.6429177,53.7339536 L62.6429177,53.7339536 Z" id="Scales" fill="#FFFFFF" fill-rule="nonzero"></path>
    </g>
</svg>