<?xml version="1.0" encoding="UTF-8"?>
<svg width="64px" height="64px" viewBox="0 0 64 64" version="1.1" xmlns="http://www.w3.org/2000/svg" xmlns:xlink="http://www.w3.org/1999/xlink">
    <title>Icons / Desktop / Brand / globe</title>
    <g id="Icons-/-Desktop-/-Brand-/-globe" stroke="none" stroke-width="1" fill="none" fill-rule="evenodd">
        <path d="M32.0008767,0 C49.6730318,0 64,14.3271412 64,32 C64,49.6728588 49.6730318,64 32.0008767,64 C14.3272509,64 -1.81188398e-13,49.6731416 -1.81188398e-13,32 C-1.81188398e-13,14.3268584 14.3272509,0 32.0008767,0 Z M32.0008767,2.63013699 C27.4837402,2.63013699 23.2047799,3.64984054 19.381639,5.47161034 C19.7074869,5.42995391 20.0531452,5.4141823 20.4258894,5.42419031 C21.4143133,5.45137607 22.041365,5.64471222 22.4819764,6.09431924 L22.6040165,6.2323726 L22.6869669,6.23838235 C23.1442825,6.25598863 23.93102,6.2018066 25.1201879,6.05718321 L25.9319505,5.95276377 C29.1185908,5.52279797 31.6989198,5.83643159 33.3284225,6.73815555 C35.2467671,7.79971698 35.7611949,9.96681046 33.7862641,10.9531612 C33.2299382,11.2319292 32.6977673,11.3201289 32.0546732,11.2633669 L31.8115017,11.2348932 L31.9474718,11.3194436 C32.3113397,11.5660291 32.6443638,11.8776967 32.9339926,12.2465019 L33.1024621,12.474578 C34.3734699,14.3048085 34.0913514,16.6836911 31.9131019,17.2992147 L31.6533311,17.3622795 C28.9012937,17.9263463 21.989528,23.4448314 21.8466804,25.3621853 C21.714524,27.121736 21.097273,28.34924 19.4398608,27.4378999 C19.178271,27.2940628 18.9859954,27.1138871 18.7824281,26.8594694 L18.5501526,26.5476074 L18.145207,25.9474711 C18.0327072,25.7809079 17.9348713,25.6463275 17.8596444,25.5468326 L17.7924875,25.4621808 L17.6822801,25.5024711 C17.1824003,25.6909894 16.2111025,26.1695007 15.5284699,26.664601 L15.3331002,26.8133554 C15.183983,26.9330948 15.0641081,27.0438861 14.9724374,27.1365446 L14.8484068,27.2682082 L15.0471071,27.3666279 L15.2145313,27.4350716 C16.5066183,27.9285556 17.4416068,28.6143068 18.2049308,29.523895 C18.3319222,29.6752199 18.4505219,29.8276467 18.5727228,29.9949196 L19.1657687,30.850813 C19.6165301,31.4909311 19.8031601,31.6110164 20.6383558,31.4666443 L20.8611946,31.4251896 C25.4933009,30.518167 28.2474762,30.7149658 30.3083856,32.7381118 L30.5481148,32.9850205 C30.7198521,33.1701569 30.8817737,33.358822 31.0458201,33.5630794 L31.4423215,34.0801882 L31.8685583,34.6602902 C32.9400818,36.1044377 33.7453239,36.4829791 36.5978253,36.3245645 C37.9506767,36.2494587 38.9485683,36.9926085 39.054823,38.2933529 C39.1191056,39.0802842 38.8532598,39.9933248 38.3100442,41.1711275 L37.9532024,41.9194939 C37.5681205,42.6944882 37.1254649,43.4701615 36.2092524,44.9676835 L33.6459212,49.1035411 C30.669828,53.9173147 29.3307863,56.8168758 29.6175318,57.6991215 L29.6529942,57.783188 C29.9868638,58.4051287 29.7701539,59.1797166 29.162009,59.5381202 C29.0198838,59.6218801 28.8095651,59.7247005 28.5404742,59.8228064 C27.7149926,60.1237627 26.8315964,60.2018823 25.9501397,59.8863545 C24.1503862,59.2421115 23.1436442,57.2445918 22.9963594,53.8381501 L22.887185,49.1655361 C22.7975433,46.3463521 22.6661373,45.8122461 22.2814305,45.4667666 L22.1229407,45.3382882 C21.0088393,44.4864451 19.3172553,42.6543782 18.3254489,40.9741338 C16.7476776,38.3011914 16.7130771,35.7933436 19.0088625,34.2242205 L19.074276,34.1819616 L18.9117364,34.0965712 C18.3052712,33.7925849 17.4104375,33.4703728 16.1410774,33.0858448 L12.5765154,32.0592288 C12.3848922,32.002092 12.209559,31.9484834 12.0412481,31.8955341 L11.3611811,31.6714764 C10.533253,31.3825658 10.0086054,31.1232787 9.64286403,30.7771148 C8.9867851,30.1553631 8.72927891,29.4867756 8.43940599,28.0832581 L8.18214061,26.8010427 C7.87996893,25.4213213 7.50898952,24.7325521 6.81230087,24.405659 L6.63119443,24.3312843 C5.78629103,24.029274 4.88700331,23.582495 4.02183374,23.0434898 C3.11783161,25.8667633 2.63020905,28.8764368 2.63020905,32 C2.63020905,48.220557 15.7798753,61.369863 32.0008767,61.369863 C40.2822786,61.369863 47.7633212,57.9418394 53.1023853,52.4273484 C52.1161062,49.8308491 51.4595494,46.3379618 50.9782453,41.9874685 L50.7968215,40.2964679 C50.3154379,36.0941726 49.7257593,35.3624248 47.0053623,35.5473112 L46.4698248,35.5920957 C40.7484656,36.1453947 38.5509527,33.2233764 39.9144285,26.1848343 C40.2538253,24.4319096 41.4218522,23.1466817 43.0666454,22.2808234 C42.0115215,22.1875494 41.1256191,21.6249956 40.4895858,20.4758449 C39.3965546,18.4956522 40.0948123,16.9531468 41.717532,16.042587 L41.9798899,15.904263 L41.8000831,15.8893482 C40.7358209,15.8264585 39.9043711,15.3849052 39.6112829,14.5114435 L39.5494035,14.2840492 C39.3852636,13.5125988 39.6854848,12.7829642 40.241185,12.1036186 C41.1121713,11.0388345 42.5125819,10.2113164 43.7142616,10.2661359 L43.9684572,10.2916232 C45.0560518,10.4639486 45.6167704,11.073724 46.1677024,12.2065354 L46.5511932,13.042674 L46.7254655,12.9320711 C47.8550231,12.1956824 48.8394683,12.0031713 50.6637301,12.4319748 C51.1242052,12.540244 51.9699837,12.2007057 53.005324,11.4746057 C52.6833254,11.1434016 52.3532587,10.8211214 52.0157785,10.5066949 C51.7492932,11.1276635 51.2985475,11.6057629 50.6170942,11.8764439 C48.1204694,12.8685362 45.5774063,11.531668 45.2850755,8.98267342 C45.163889,7.95261669 45.6296965,7.14925697 46.5035284,6.45614392 C42.2262311,4.02101294 37.2759216,2.63013699 32.0008767,2.63013699 Z M22.3229388,33.8311823 L22.0744678,33.8733589 L22.0981149,34.0549065 C22.1526099,34.7868042 21.7624776,35.5354281 20.8719651,36.1508269 L20.6388802,36.3018143 C19.601488,36.9313218 19.5923389,37.9461699 20.5905104,39.6371977 C21.33293,40.8949496 22.6235508,42.3305604 23.4944018,43.0664218 L23.9007865,43.3914467 C25.2145751,44.4698232 25.4248799,45.3005625 25.5465879,50.1903372 L25.6113223,53.3138572 C25.6617201,55.895003 26.1490227,57.0588886 26.7376154,57.3666348 L26.8365945,57.4100949 L26.9456149,57.4358795 L26.9450437,57.3721922 C26.9652571,55.4395882 28.3250099,52.7456501 31.0723784,48.2666014 L33.7429863,43.9575889 C34.9294524,42.0270438 35.3585209,41.2621885 35.7910041,40.3492534 L35.9216123,40.0696167 C36.0842439,39.716998 36.2067736,39.4105816 36.2912221,39.1605817 L36.349489,38.9670575 L36.2873166,38.9714361 C33.0182825,39.0857976 31.4285659,38.3590326 29.9564276,36.4895222 L29.1998789,35.4727715 C29.0631012,35.292565 28.9364532,35.1341906 28.810165,34.9871255 L28.6158034,34.7694095 C27.4541107,33.5178904 25.6794313,33.2639162 22.3229388,33.8311823 Z M42.4966604,26.6848989 C41.4461945,32.1076195 42.377133,33.3454821 46.2166875,32.974168 C51.1940089,32.4930138 52.7650761,34.2783762 53.4549558,40.4116326 L53.5027684,40.8571448 C53.8904333,44.624934 54.402652,47.7533132 55.105683,50.1326474 C59.0295966,45.1390355 61.369791,38.8427662 61.369791,32 C61.369791,29.6958584 61.1044484,27.4536812 60.6026556,25.3023595 C59.4072034,25.4317812 58.1535664,25.2643509 56.6548654,24.770046 L56.1709956,24.6022373 C50.9917466,22.7193462 43.1327713,23.3994978 42.4966604,26.6848989 Z M18.5118693,8.47240894 L17.9459868,8.78394995 C17.6587227,8.93813026 17.4239108,9.04115643 17.1571945,9.11186576 C16.5877184,9.26283993 16.0162655,9.20701268 15.4600002,8.92847411 C15.1099135,8.75343557 14.7638685,8.60112219 14.4201264,8.46995253 C10.2923567,11.5597122 7.00437142,15.7094627 4.96042761,20.5157326 C5.64990592,20.9851954 6.3783244,21.3875469 7.06055126,21.6762838 L7.51622235,21.8545145 C9.29182836,22.4887153 10.1464675,23.7829804 10.6591866,25.8430973 L10.8491572,26.7086756 L10.9476782,27.2136823 C11.1562523,28.2841646 11.3042738,28.7279749 11.4515062,28.8675042 L11.5382653,28.9340973 C11.6977844,29.0323065 12.0599979,29.1564764 13.3333079,29.5303537 L13.7121565,29.6405918 L13.496822,29.5221762 C12.6371365,29.0159135 12.1317908,28.313936 12.1149764,27.4380928 L12.1226038,27.1949322 C12.1968117,26.2741386 12.7760272,25.493485 13.6862593,24.7625789 C15.0164034,23.694488 17.1550183,22.7260294 18.1601708,22.7942304 C18.4250494,22.8117461 18.6728721,22.8867888 18.9029694,23.0053574 C19.1761981,23.1461516 19.4007386,23.3198086 19.6224366,23.5551918 L19.719554,23.666674 L19.7626741,23.5873601 C21.5858866,20.2600828 27.5443093,15.7101754 30.8486305,14.8502648 L31.1251998,14.7857095 C31.3002917,14.7498221 31.3309303,14.5347245 30.9420761,13.9747809 C30.4371208,13.2476535 29.7487279,13.0732057 29.0055419,13.6437758 C25.5240324,16.3151483 21.8300657,15.752976 20.4836274,12.6113727 C19.9332444,11.3260691 20.5701205,10.2519172 21.7899213,9.80803276 C22.3244856,9.61350527 22.8253747,9.53234352 23.8830527,9.43510465 L24.6091299,9.37135154 C25.9059169,9.25638209 26.5764188,9.08937788 26.6043611,9.04739497 C26.7463337,8.83468757 26.8895855,8.65474374 27.0385091,8.50476832 L27.0753719,8.46798904 L26.7767635,8.49876419 L25.0284447,8.71815004 C22.3499251,9.02810615 21.3588329,8.90263278 20.7262681,8.12226336 L20.6892244,8.07171507 L20.3544333,8.05335636 C19.5979259,8.03304467 19.0904887,8.16920143 18.5118693,8.47240894 Z M50.8262222,18.4694917 C50.7773475,18.468544 50.6949375,18.5202048 50.4049274,18.7208413 L48.4549454,20.1291635 C47.9311458,20.4959788 47.4521553,20.8093306 46.9917211,21.0800183 C49.0827261,20.768773 51.4003887,20.8308695 53.6136624,21.2188487 C53.4000428,21.0130869 53.170497,20.784901 52.9385984,20.5512663 L52.6248049,20.2334791 C51.7905626,19.3848385 51.0021006,18.5571205 50.8703653,18.4844064 L50.8262222,18.4694917 Z M54.769645,13.4478706 C53.0546089,14.7183395 51.5088366,15.3325453 50.0617872,14.9923079 C49.0568152,14.7560832 48.7571574,14.7753413 48.3034893,15.0464488 L48.10273,15.1739424 C47.5788863,15.5153888 47.226073,15.6876523 46.678276,15.790026 C46.5081637,15.8220546 46.3498146,15.8393426 46.201693,15.8423007 L46.1198389,15.8393863 L46.1669961,15.964588 L46.2236234,16.1711239 C46.4005169,16.9524481 45.8436476,17.7090577 45.0450401,17.7724465 C44.693203,17.8003732 44.111367,17.8989179 43.5566126,18.092725 C42.6063146,18.424718 42.4695414,18.6201275 42.7915708,19.2035345 C43.1318579,19.8183465 43.796565,19.8191141 45.2482857,19.0432772 C45.6561977,18.8252785 46.0897285,18.5582222 46.5735149,18.2313393 L46.9461625,17.9747914 C47.0987887,17.8679077 47.4010774,17.649062 47.72572,17.4132593 L48.0530988,17.1753229 C48.4327319,16.8993465 48.7850309,16.6433939 48.9078346,16.5583298 C50.0488246,15.7689627 51.1038323,15.6090526 52.1414226,16.1817725 C52.8077374,16.5495592 55.196,19.1435686 55.9401829,19.7923694 C56.66244,20.4219225 57.6624567,20.5484418 58.9129532,20.2259859 C57.839637,17.7726733 56.4399888,15.4955017 54.769645,13.4478706 Z M43.5580872,12.8895501 C43.4724243,12.8760619 43.1979071,13.0043055 42.9031759,13.2085952 L42.7128414,13.3495233 L42.7741473,13.359803 C43.1641274,13.4300893 43.5248122,13.5331983 43.8559851,13.6664474 L43.9683279,13.715989 L43.7040826,13.1604229 C43.5961782,12.9535051 43.5468748,12.887774 43.5580872,12.8895501 Z M27.3874901,11.5680438 L27.1687298,11.6385168 C26.7505497,11.7584083 26.2492184,11.8420364 25.6348408,11.9121342 L23.6855958,12.0982804 L23.2615688,12.1501808 L23.2933717,12.1880307 C24.0467138,12.9913918 25.4118159,12.9781411 27.1299172,11.7598031 L27.3874901,11.5680438 Z M48.9440183,8.00768579 L48.8268318,8.07298294 C48.2127047,8.42246676 47.9018158,8.71401637 47.8977129,8.67918423 C47.9845474,9.43632823 48.6952482,9.80993801 49.6459443,9.43215664 C49.6230151,9.44126439 49.6794571,9.31736633 49.6938188,8.89322873 C49.6973582,8.78870255 49.7130032,8.68743942 49.7393617,8.59074043 C49.4787777,8.39282365 49.2130693,8.19804875 48.9440183,8.00768579 Z" id="Globe" fill="#FFFFFF" fill-rule="nonzero"></path>
    </g>
</svg>