<svg xmlns="http://www.w3.org/2000/svg" viewBox="0 0 48 48"><path fill="#002856" fill-rule="nonzero" d="M24 0c13.255 0 24 10.745 24 24S37.255 48 24 48 0 37.255 0 24 10.745 0 24 0zm0 1.5C11.574 1.5 1.5 11.574 1.5 24S11.574 46.5 24 46.5 46.5 36.426 46.5 24 36.426 1.5 24 1.5zm-.492 11.463a.75.75 0 0 1 .01 1.05l-9.038 9.328h20.787c.405 0 .733.332.733.742s-.328.743-.733.743H14.48l9.038 9.328a.75.75 0 0 1-.01 1.05.726.726 0 0 1-1.036-.01L12.21 24.604a.742.742 0 0 1-.131-.185 1.35 1.35 0 0 1-.079-.336c0-.21.087-.4.226-.536l10.246-10.575a.726.726 0 0 1 1.036-.01z"/></svg>