<?xml version="1.0" encoding="UTF-8"?>
<svg width="64px" height="64px" viewBox="0 0 64 64" version="1.1" xmlns="http://www.w3.org/2000/svg" xmlns:xlink="http://www.w3.org/1999/xlink">
    <title>Icons / Desktop / Brand / binoculars</title>
    <g id="Icons-/-Desktop-/-Brand-/-binoculars" stroke="none" stroke-width="1" fill="none" fill-rule="evenodd">
        <path d="M43.9348915,7.11111111 C45.9235289,7.11111111 47.7738796,7.92715802 48.962975,9.30812877 C49.0604134,9.42129005 49.1377939,9.55015447 49.1918632,9.68915377 L49.2030915,9.71909243 L51.8204857,16.9620812 C54.2240247,17.8285739 56.2826947,19.3355604 57.6722588,21.3073336 C57.7443478,21.409627 57.8014161,21.5216351 57.8417803,21.6399462 L57.8523733,21.6723666 L62.8735249,37.7389833 C63.5996957,39.5118888 64,41.4526326 64,43.4868276 C64,51.8700196 57.1986725,58.6666667 48.8097076,58.6666667 C40.4192861,58.6666667 33.6176618,51.8703162 33.6176618,43.4868276 C33.6176618,43.0515343 33.6359916,42.6205215 33.671922,42.1945179 L33.9986043,36.322877 C33.9524184,36.2818455 33.9020764,36.2408822 33.8475007,36.2005217 C33.4032448,35.8719803 32.8068932,35.6689389 31.9985096,35.6689389 C31.1919103,35.6689389 30.5966855,35.8718269 30.1530023,36.2002144 C30.0980525,36.240885 30.0473911,36.2821713 30.0009403,36.323526 L30.3275487,42.1949712 L30.3275879,42.2095965 C30.3626845,42.6306925 30.3805847,43.0566706 30.3805847,43.4868276 C30.3805847,51.8700196 23.5792572,58.6666667 15.1902924,58.6666667 C6.80132749,58.6666667 1.49213975e-13,51.8700196 1.49213975e-13,43.4868276 C1.49213975e-13,41.4526326 0.400304341,39.5118888 1.12647508,37.7389833 L6.14762669,21.6723666 C6.18827627,21.5422587 6.24893284,21.4192621 6.32742063,21.3077887 C7.71587568,19.3358158 9.77422108,17.828703 12.1781078,16.9621427 L14.7969968,9.71884802 C14.8513424,9.56849226 14.9326837,9.4293068 15.037025,9.30812877 C16.2261204,7.92715802 18.0764711,7.11111111 20.0651085,7.11111111 C23.4694261,7.11111111 26.3114679,9.49265592 26.3679683,12.5620451 L26.3688255,12.6552656 L26.368392,19.7847487 C27.5190159,20.9114915 28.4019663,22.2495127 28.9282517,23.7274026 C29.8064758,23.3413908 30.8324355,23.1204706 31.9999123,23.1204706 C33.1668616,23.1204706 34.1924492,23.3414332 35.0719089,23.726999 C35.5966134,22.2488369 36.4798764,20.910659 37.6309266,19.7838542 L37.6311745,12.6552656 C37.6311745,9.54101093 40.4961868,7.11111111 43.9348915,7.11111111 Z M15.1902924,30.9336282 C8.25370242,30.9336282 2.63020184,36.5537495 2.63020184,43.4868276 C2.63020184,50.4183988 8.25394785,56.0382748 15.1902924,56.0382748 C22.1266369,56.0382748 27.7503829,50.4183988 27.7503829,43.4868276 C27.7503829,36.5537495 22.1268823,30.9336282 15.1902924,30.9336282 Z M48.8097076,30.9336282 C41.8716097,30.9336282 36.2478636,36.5535042 36.2478636,43.4868276 C36.2478636,50.4186441 41.8718551,56.0382748 48.8097076,56.0382748 C55.7460521,56.0382748 61.3697982,50.4183988 61.3697982,43.4868276 C61.3697982,36.5537495 55.7462976,30.9336282 48.8097076,30.9336282 Z M16.9961889,18.7592676 C13.5423486,18.7592676 10.4197805,20.2437874 8.63978338,22.5992471 L8.5944826,22.6598625 L5.82024806,31.5367958 C8.40141629,29.5123874 11.6548178,28.3052364 15.1902924,28.3052364 C20.1066733,28.3052364 24.4776013,30.6395394 27.2539294,34.2597149 L26.8509351,26.9869244 L26.848925,26.9142914 L26.848925,26.9142914 C26.848925,26.6143843 26.8291022,26.3178749 26.7904504,26.0256667 C26.7884043,26.0230141 26.78804,26.0203201 26.787684,26.0176249 L26.7832537,25.972857 C26.5376581,24.2221468 25.6159219,22.6283421 24.2329545,21.3867451 C24.1956113,21.3586884 24.1609698,21.3278088 24.1280442,21.2952018 C22.3400603,19.7378475 19.8156936,18.7592676 16.9961889,18.7592676 Z M47.1104751,18.7597403 L47.0038111,18.7592676 C44.1871792,18.7592676 41.6652549,19.7352669 39.8778227,21.2875582 C39.8430808,21.3242159 39.806074,21.3573939 39.7672698,21.3884209 C38.3825724,22.6279741 37.46063,24.2219032 37.214997,25.9728213 L37.2103872,26.0176249 C37.2100312,26.0203201 37.2096669,26.0230141 37.2092942,26.0257072 C37.1691455,26.3178507 37.1493215,26.6143712 37.1493215,26.9142914 L37.1473197,26.9867751 L36.7453035,34.2585812 C39.5219005,30.6390046 43.8929291,28.3052364 48.8097076,28.3052364 C52.3451822,28.3052364 55.5985837,29.5123874 58.1797519,31.5367958 L55.4055612,22.6601078 L55.3603751,22.5996674 C53.5970498,20.26813 50.52029,18.78997 47.1104751,18.7597403 Z M31.9999123,25.7488624 C31.0424435,25.7488624 30.2737519,25.9549174 29.666399,26.2902521 C29.5940959,26.3301725 29.526544,26.3706549 29.4637056,26.4112479 C29.4715673,26.5187727 29.4754154,26.6263909 29.4774415,26.7344226 L29.478671,26.8707214 L29.8396921,33.4102723 C30.4772846,33.1716036 31.1978112,33.0405471 31.9985096,33.0405471 C32.7995298,33.0405471 33.5203154,33.1714135 34.1581312,33.4097691 L34.5195317,26.8699241 L34.5208051,26.7344147 C34.5228343,26.6262206 34.5266909,26.5184413 34.5323488,26.4110977 C34.4722553,26.3709959 34.4043884,26.3302933 34.3317241,26.2901597 C33.7246672,25.9548734 32.9565238,25.7488624 31.9999123,25.7488624 Z M20.0651085,9.73950295 C18.9231049,9.73950295 17.8816605,10.1604825 17.1934476,10.8474338 L17.1810746,10.85989 L15.2370405,16.2373925 C15.8142301,16.1670004 16.4017557,16.1308758 16.9961889,16.1308758 C19.4724093,16.1308758 21.7895138,16.7548378 23.7389839,17.8354393 L23.7386237,12.6552656 C23.7386237,11.0969609 22.1380911,9.73950295 20.0651085,9.73950295 Z M43.9751554,9.7396775 L43.9348915,9.73950295 C41.8826387,9.73950295 40.2934342,11.0699475 40.2618553,12.6085779 L40.2607239,17.8348884 C42.1563352,16.7845062 44.3994901,16.1657414 46.798627,16.1323048 L47.0038111,16.1308758 C47.5977431,16.1308758 48.1848023,16.1669675 48.7615658,16.2372962 L46.8187851,10.8597674 L46.8065524,10.8474338 C46.1264361,10.1685643 45.1013508,9.74944517 43.9751554,9.7396775 Z" id="Combined-Shape" fill="#007836" fill-rule="nonzero"></path>
    </g>
</svg>