<?xml version="1.0" encoding="UTF-8"?>
<svg width="64px" height="64px" viewBox="0 0 64 64" version="1.1" xmlns="http://www.w3.org/2000/svg" xmlns:xlink="http://www.w3.org/1999/xlink">
    <title>Icons / Desktop / Brand / global</title>
    <g id="Icons-/-Desktop-/-Brand-/-global" stroke="none" stroke-width="1" fill="none" fill-rule="evenodd">
        <path d="M40.0650527,60.1284815 C42.7493756,57.3390971 44.9574194,53.1646512 46.4685548,48.0866758 C49.313972,48.8763885 51.8932333,49.9024897 54.1100322,51.1422161 C50.4416328,55.374446 45.5895397,58.542052 40.0650527,60.1284815 L40.0650527,60.1284815 Z M9.8878708,51.1404651 C12.1064207,49.9007387 14.683931,48.8763885 17.5293482,48.0866758 C19.0422347,53.1629001 21.2485274,57.3390971 23.9328503,60.1284815 C18.4083633,58.542052 13.5562703,55.374446 9.8878708,51.1404651 L9.8878708,51.1404651 Z M23.9328503,3.86976744 C21.2660377,6.64164159 19.0720021,10.781067 17.5591157,15.8152668 C14.7294577,15.0325581 12.1624536,14.0169631 9.95090774,12.7877428 C13.6123031,8.59053352 18.4381307,5.44744186 23.9328503,3.86976744 L23.9328503,3.86976744 Z M54.0469953,12.7859918 C51.8354495,14.015212 49.2701964,15.0308071 46.4387874,15.8135157 C44.9259009,10.781067 42.7318653,6.64164159 40.0650527,3.86976744 C45.5597723,5.44744186 50.387351,8.58878249 54.0469953,12.7859918 L54.0469953,12.7859918 Z M48.6415781,30.5904241 C48.5487737,26.2338714 48.0234659,22.1329685 47.1391978,18.4295486 C50.3558325,17.5400274 53.2642867,16.3668399 55.7524946,14.9362517 C58.9586232,19.3873598 60.9337805,24.7647606 61.2121936,30.5904241 L48.6415781,30.5904241 Z M33.3568722,43.5322572 L33.3568722,33.3045144 L45.9309898,33.3045144 C45.8399365,37.3931601 45.3303879,41.2874419 44.4846423,44.8105062 C41.0001006,44.0540629 37.2476519,43.6163064 33.3568722,43.5322572 L33.3568722,43.5322572 Z M33.3568722,61.1353215 L33.3568722,46.2463475 C37.0095124,46.3268947 40.5238216,46.7313817 43.7789789,47.42829 C41.5114002,54.8999179 37.6941636,60.2090287 33.3568722,61.1353215 L33.3568722,61.1353215 Z M30.6410309,46.2463475 L30.6410309,61.1353215 C26.3037395,60.2090287 22.4882538,54.8981669 20.2206752,47.426539 C23.4740815,46.7313817 26.9883906,46.3268947 30.6410309,46.2463475 L30.6410309,46.2463475 Z M18.0686642,33.3045144 L30.6410309,33.3045144 L30.6410309,43.5322572 C26.7502511,43.6163064 22.9995534,44.0540629 19.5150117,44.8105062 C18.6692662,41.2874419 18.1597176,37.3931601 18.0686642,33.3045144 L18.0686642,33.3045144 Z M30.6410309,20.3591792 L30.6410309,30.5904241 L18.0721663,30.5904241 C18.1702237,26.5000274 18.6867764,22.6057456 19.536024,19.0879343 C23.0153127,19.8408755 26.7590062,20.276881 30.6410309,20.3591792 L30.6410309,20.3591792 Z M30.6410309,2.8629275 L30.6410309,17.6468399 C26.9988968,17.5662927 23.4968448,17.1635568 20.2504426,16.4719015 C22.5197723,9.05280438 26.3212497,3.78571819 30.6410309,2.8629275 L30.6410309,2.8629275 Z M33.3568722,17.6468399 L33.3568722,2.8629275 C37.6766533,3.78571819 41.4798817,9.05105335 43.7492114,16.4719015 C40.5028092,17.1635568 36.9990062,17.5662927 33.3568722,17.6468399 L33.3568722,17.6468399 Z M33.3568722,20.3591792 C37.2388968,20.276881 40.9825904,19.8408755 44.46363,19.0879343 C45.3128776,22.6057456 45.8294303,26.5000274 45.9274878,30.5904241 L33.3568722,30.5904241 L33.3568722,20.3591792 Z M8.24540842,14.9380027 C10.7336164,16.368591 13.6438216,17.5417784 16.8587053,18.4295486 C15.9761882,22.1329685 15.4508804,26.2338714 15.358076,30.5904241 L2.78746041,30.5904241 C3.06587354,24.7647606 5.03927983,19.3891108 8.24540842,14.9380027 L8.24540842,14.9380027 Z M2.78220733,33.3045144 L15.3545739,33.3045144 C15.4421252,37.659316 15.9586779,41.7619699 16.8341909,45.4688919 C13.605299,46.3636662 10.6845876,47.5456088 8.19112662,48.9867031 C4.99725521,44.5233379 3.03960815,39.1354309 2.78220733,33.3045144 L2.78220733,33.3045144 Z M55.8067764,48.9884542 C53.3133154,47.5456088 50.392604,46.3654172 47.1637121,45.470643 C48.0409761,41.7637209 48.5575288,37.661067 48.6450801,33.3045144 L61.2174467,33.3045144 C60.9600459,39.1371819 59.0006478,44.5233379 55.8067764,48.9884542 L55.8067764,48.9884542 Z M57.3599365,12.5601094 C57.3354221,12.5110807 57.3319201,12.4585499 57.3021526,12.4112722 C57.2373646,12.3097127 57.1463113,12.2396717 57.062262,12.1626265 C51.1945739,4.76629275 42.1505247,3.15796771e-14 31.999827,3.15796771e-14 C21.8543824,3.15796771e-14 12.8138352,4.76103967 6.94614714,12.1521204 C6.85684481,12.2309166 6.76228941,12.3044596 6.69399939,12.4112722 C6.66248093,12.460301 6.65722785,12.5180848 6.63271348,12.5706156 C2.49153701,17.9637756 -0.000172972973,24.6877155 -0.000172972973,32 C-0.000172972973,49.6433379 14.3547381,63.998249 31.999827,63.998249 C49.6449159,63.998249 63.999827,49.6433379 63.999827,32 C63.999827,24.6842134 61.506366,17.9567715 57.3599365,12.5601094 L57.3599365,12.5601094 Z" id="Global" fill="#007836" fill-rule="nonzero"></path>
    </g>
</svg>